<?xml version="1.0" encoding="utf-8"?>
<!-- Generator: Adobe Illustrator 25.2.1, SVG Export Plug-In . SVG Version: 6.00 Build 0)  -->
<svg version="1.1" id="Layer_1" xmlns="http://www.w3.org/2000/svg" xmlns:xlink="http://www.w3.org/1999/xlink" x="0px" y="0px"
	 width="183.649px" height="179.71px" viewBox="0 0 183.649 179.71" style="enable-background:new 0 0 183.649 179.71;"
	 xml:space="preserve">
<style type="text/css">
	.st0{fill:#E4002B;}
</style>
<g>
	<path d="M0,169.262l6.648-0.581c0.4,2.007,1.211,3.481,2.434,4.424c1.223,0.941,2.873,1.414,4.952,1.414
		c2.2,0,3.857-0.42,4.972-1.257c1.117-0.839,1.674-1.819,1.674-2.941c0-0.719-0.234-1.334-0.704-1.838
		c-0.468-0.504-1.288-0.946-2.456-1.32c-0.801-0.248-2.625-0.692-5.471-1.329c-3.662-0.818-6.233-1.821-7.71-3.013
		c-2.077-1.674-3.117-3.717-3.117-6.127c0-1.551,0.49-3.001,1.467-4.352c0.977-1.351,2.386-2.379,4.224-3.085
		c1.838-0.707,4.057-1.059,6.658-1.059c4.248,0,7.444,0.837,9.591,2.514c2.147,1.676,3.273,3.913,3.382,6.709l-6.834,0.27
		c-0.292-1.563-0.919-2.69-1.879-3.375c-0.963-0.685-2.405-1.028-4.328-1.028c-1.985,0-3.541,0.367-4.665,1.1
		c-0.721,0.47-1.081,1.1-1.081,1.891c0,0.719,0.335,1.336,1.013,1.848c0.861,0.651,2.955,1.329,6.277,2.036
		c3.324,0.707,5.785,1.438,7.377,2.193s2.839,1.785,3.739,3.093c0.9,1.31,1.349,2.929,1.349,4.854c0,1.744-0.538,3.377-1.614,4.902
		c-1.078,1.522-2.6,2.654-4.571,3.394c-1.968,0.743-4.422,1.112-7.362,1.112c-4.279,0-7.563-0.888-9.857-2.668
		C1.816,175.262,0.446,172.668,0,169.262"/>
	<path d="M29.906,157.109h6.487v22.061h-6.487V157.109z M29.906,148.716h6.487v5.401h-6.487V148.716z"/>
	<path d="M50.971,157.109v4.653h-4.431v8.892c0,1.8,0.041,2.849,0.128,3.146c0.084,0.299,0.277,0.545,0.574,0.738
		c0.304,0.193,0.668,0.292,1.098,0.292c0.601,0,1.471-0.188,2.608-0.562l0.555,4.528c-1.508,0.584-3.216,0.873-5.124,0.873
		c-1.17,0-2.224-0.176-3.163-0.531c-0.938-0.352-1.626-0.808-2.065-1.37c-0.439-0.56-0.743-1.32-0.912-2.275
		c-0.138-0.678-0.21-2.048-0.21-4.113v-9.618h-2.974v-4.653h2.974v-4.383l6.511-3.406v7.789H50.971z"/>
	<path d="M66.728,166.251c-0.048-1.691-0.533-2.974-1.455-3.855c-0.924-0.878-2.048-1.32-3.37-1.32
		c-1.416,0-2.586,0.466-3.508,1.392c-0.924,0.929-1.377,2.19-1.363,3.782H66.728z M66.359,172.148l6.463,0.977
		c-0.832,2.132-2.145,3.756-3.937,4.87c-1.792,1.117-4.033,1.674-6.726,1.674c-4.263,0-7.418-1.254-9.466-3.761
		c-1.616-2.007-2.422-4.542-2.422-7.604c0-3.655,1.061-6.518,3.184-8.59c2.123-2.07,4.808-3.105,8.055-3.105
		c3.65,0,6.525,1.083,8.634,3.249c2.108,2.169,3.114,5.488,3.023,9.963H56.919c0.046,1.732,0.567,3.078,1.568,4.041
		c0.999,0.962,2.246,1.442,3.739,1.442c1.016,0,1.87-0.248,2.562-0.748C65.48,174.062,66.004,173.258,66.359,172.148"/>
	<polygon class="st0" points="75.374,179.17 75.374,148.966 82.206,148.966 82.206,174.039 99.196,174.039 99.196,179.17 	"/>
	<polygon class="st0" points="149.026,179.17 149.026,148.717 155.513,148.717 155.513,164.877 163.106,157.11 171.094,157.11 
		162.713,165.169 171.692,179.17 164.701,179.17 158.535,169.263 155.513,172.107 155.513,179.17 	"/>
	<path d="M125.048,122.608H48.162V52.805h76.885V122.608z M86.675,17.805c10.665,0,19.81,6.706,23.431,16.124H63.242
		C66.863,24.511,76.01,17.805,86.675,17.805 M128.69,34.235C124.666,14.725,107.344,0,86.675,0S48.683,14.725,44.657,34.235H29.793
		v106.74h113.625V34.235H128.69z"/>
	<polygon class="st0" points="118.039,46.821 85.226,91.615 68.077,75.327 55.958,90.45 86.703,115.755 132.529,56.714 	"/>
	<path class="st0" d="M180.757,176.76h0.27c0.314,0,0.569-0.106,0.569-0.362c0-0.224-0.166-0.374-0.526-0.374l-0.314,0.031V176.76z
		 M180.742,178.152h-0.572v-2.456c0.224-0.046,0.54-0.077,0.946-0.077c0.463,0,0.675,0.077,0.854,0.181
		c0.135,0.106,0.241,0.299,0.241,0.54c0,0.27-0.212,0.48-0.511,0.569v0.029c0.241,0.092,0.376,0.27,0.451,0.601
		c0.075,0.374,0.118,0.523,0.178,0.613h-0.615c-0.075-0.089-0.118-0.314-0.193-0.598c-0.046-0.27-0.195-0.388-0.511-0.388h-0.268
		V178.152z M179.227,176.863c0,1.095,0.808,1.964,1.918,1.964c1.081,0,1.874-0.868,1.874-1.947c0-1.095-0.794-1.98-1.889-1.98
		C180.035,174.9,179.227,175.785,179.227,176.863 M183.649,176.863c0,1.394-1.095,2.487-2.518,2.487
		c-1.409,0-2.533-1.093-2.533-2.487c0-1.363,1.124-2.458,2.533-2.458C182.554,174.405,183.649,175.5,183.649,176.863"/>
	<path class="st0" d="M105.857,168.14c0,2.188,0.579,3.864,1.732,5.027c1.153,1.165,2.576,1.747,4.27,1.747
		c1.691,0,3.112-0.581,4.258-1.747c1.148-1.163,1.72-2.851,1.72-5.068c0-2.159-0.572-3.821-1.72-4.986
		c-1.146-1.163-2.567-1.744-4.258-1.744c-1.693,0-3.117,0.581-4.27,1.744C106.436,164.277,105.857,165.952,105.857,168.14
		 M99.211,167.828c0-1.939,0.531-3.814,1.592-5.63c1.061-1.814,2.564-3.199,4.511-4.154c1.947-0.955,4.123-1.433,6.523-1.433
		c3.708,0,6.747,1.083,9.116,3.249c2.369,2.169,3.553,4.907,3.553,8.219c0,3.336-1.197,6.103-3.59,8.298
		c-2.393,2.195-5.404,3.29-9.034,3.29c-2.248,0-4.39-0.456-6.429-1.37c-2.041-0.914-3.59-2.253-4.651-4.019
		C99.741,172.513,99.211,170.364,99.211,167.828"/>
	<path class="st0" d="M147.65,163.632l-6.393,1.037c-0.217-1.148-0.704-2.014-1.467-2.596c-0.762-0.581-1.751-0.873-2.967-0.873
		c-1.616,0-2.904,0.504-3.867,1.508c-0.96,1.004-1.44,2.682-1.44,5.037c0,2.617,0.487,4.465,1.467,5.548
		c0.975,1.078,2.287,1.619,3.935,1.619c1.23,0,2.239-0.314,3.023-0.946c0.784-0.63,1.339-1.713,1.662-3.252l6.371,0.977
		c-0.663,2.632-1.932,4.62-3.809,5.963c-1.877,1.344-4.395,2.014-7.548,2.014c-3.585,0-6.443-1.018-8.573-3.054
		c-2.132-2.036-3.199-4.853-3.199-8.455c0-3.643,1.071-6.477,3.208-8.506c2.14-2.029,5.032-3.044,8.68-3.044
		c2.984,0,5.358,0.579,7.121,1.734C145.614,159.502,146.88,161.263,147.65,163.632"/>
</g>
</svg>
